<svg xmlns="http://www.w3.org/2000/svg" width="1327.63" height="189.709" viewBox="0 0 1327.63 189.709">
  <g id="Group_67" data-name="Group 67" transform="translate(-12.999 -119.998)">
    <path id="Union_35" data-name="Union 35" d="M-10298-18546.6v-97.4h122.063v29.178h-17.426v-11.6h-87.211v69.773l43.607,25.943,43.6-25.943v-35.189h17.426v45.232l-61.029,36.311Zm0-118.4v-35h18.012v16.988h36.024V-18700h18.012v16.988h31.913V-18700h18.012v16.988h.085V-18665Z" transform="translate(10311 18820)" fill="#fff"/>
    <path id="Path_73" data-name="Path 73" d="M121.723-93.234l-8.684,8.227A66.3,66.3,0,0,0,92.511-98.985a55.22,55.22,0,0,0-21.747-4.761,51.848,51.848,0,0,0-25.1,6.475A47,47,0,0,0,27.193-79.714a45.321,45.321,0,0,0-6.551,23.423,46.257,46.257,0,0,0,6.779,24.032,48.158,48.158,0,0,0,18.738,17.9,53.9,53.9,0,0,0,26.2,6.513q17.291,0,29.25-9.75a38.48,38.48,0,0,0,14.168-25.289H80.057V-53.7H128.35q-.152,25.975-15.425,41.247T72.059,2.818q-31.078,0-49.207-21.176A56.287,56.287,0,0,1,8.912-56.062a57.8,57.8,0,0,1,8-29.631,56.874,56.874,0,0,1,21.938-21.442,63.91,63.91,0,0,1,31.535-7.731A70.121,70.121,0,0,1,97.2-109.726Q109.764-104.584,121.723-93.234Zm28.336-18.814h11.2v67.641q0,12.035.457,15.006A24.88,24.88,0,0,0,165.6-18.319a22.906,22.906,0,0,0,9.369,7.465,29.357,29.357,0,0,0,12.721,3.009,25.11,25.11,0,0,0,10.664-2.361,23.721,23.721,0,0,0,8.531-6.551,26.74,26.74,0,0,0,5.027-10.131q1.143-4.266,1.143-17.52v-67.641h11.2v67.641q0,15.006-2.933,24.261t-11.73,16.11q-8.8,6.855-21.29,6.855-13.559,0-23.232-6.475a31.184,31.184,0,0,1-12.949-17.139q-2.057-6.551-2.057-23.613Zm147.545,0L349.857,0H337.763L320.14-36.867h-48.27L254.414,0H241.922l52.939-112.049ZM296.19-88.243l-19.2,40.559H315.3Zm71.644-23.806h22.318q18.662,0,25.289,1.526a28.855,28.855,0,0,1,16.225,9.8q6.246,7.512,6.246,18.5a29.9,29.9,0,0,1-4.3,16.092,26.854,26.854,0,0,1-12.3,10.487q-8,3.547-22.09,3.623L439.512,0H425.659l-40.3-52.025h-6.331V0h-11.2Zm11.2,10.969v38.086l19.3.154q11.215,0,16.594-2.133a17.268,17.268,0,0,0,8.393-6.817,18.951,18.951,0,0,0,3.014-10.475,18.156,18.156,0,0,0-3.052-10.245,17,17,0,0,0-8.011-6.589q-4.96-1.98-16.479-1.98ZM461.906,0V-112.049h23.232q25.137,0,36.486,4.037a48.768,48.768,0,0,1,25.479,19.8q9.179,14.092,9.179,33.592,0,16.834-7.274,29.631T530.118-6.094Q518.5,0,497.555,0Zm10.74-10.588H485.6q23.232,0,32.221-2.892a37.157,37.157,0,0,0,19.881-14.8q7.236-10.693,7.236-26.143,0-16.212-7.846-27.7a39.5,39.5,0,0,0-21.861-15.754q-10.512-3.2-34.658-3.2h-7.922ZM576.393-112.049h11.2V0h-11.2Zm82.646,0L711.293,0H699.2L681.575-36.867H633.3L615.85,0H603.357L656.3-112.049Zm-1.414,23.806-19.2,40.559h38.307ZM728.736,0V-112.049h2.438l74.572,85.891v-85.891h11.045V0h-2.514L740.314-84.846V0ZM844.061-112.049h11.2V-10.816h43.113V0H844.061Zm70.459,0h11.2V0h-11.2ZM951.463,0V-112.049H953.9l74.572,85.891v-85.891h11.045V0H1037L963.041-84.846V0Zm115.324-112.049h11.426V-70L1123-112.049h15.045L1084.23-61.775l58,61.775h-14.914l-49.108-52.191V0h-11.426Z" transform="translate(198.394 274)" fill="#fff"/>
  </g>
</svg>
